{
	"asset":{
		"generator":"Khronos glTF Blender I/O v4.1.63",
		"version":"2.0"
	},
	"scene":0,
	"scenes":[
		{
			"name":"Scene",
			"nodes":[
				0
			]
		}
	],
	"nodes":[
		{
			"mesh":0,
			"name":"ReBel006.120"
		}
	],
	"materials":[
		{
			"doubleSided":true,
			"name":"mat_1",
			"pbrMetallicRoughness":{
				"baseColorFactor":[
					0.04666508734226227,
					0.04666508734226227,
					0.04373503103852272,
					1
				],
				"metallicFactor":0.5,
				"roughnessFactor":0.5
			}
		},
		{
			"doubleSided":true,
			"name":"mat_0",
			"pbrMetallicRoughness":{
				"baseColorFactor":[
					0.7454042434692383,
					0.1119324341416359,
					0.013702083379030228,
					1
				],
				"metallicFactor":0.5,
				"roughnessFactor":0.5
			}
		},
		{
			"doubleSided":true,
			"name":"mat_2",
			"pbrMetallicRoughness":{
				"baseColorFactor":[
					0.20507873594760895,
					0.1946178376674652,
					0.18782077729701996,
					1
				],
				"metallicFactor":0.5,
				"roughnessFactor":0.5
			}
		},
		{
			"doubleSided":true,
			"name":"mat_3",
			"pbrMetallicRoughness":{
				"baseColorFactor":[
					0.3813260495662689,
					0.40724024176597595,
					0.4620770215988159,
					1
				],
				"metallicFactor":0.5,
				"roughnessFactor":0.5
			}
		}
	],
	"meshes":[
		{
			"name":"ReBel006.120",
			"primitives":[
				{
					"attributes":{
						"POSITION":0,
						"NORMAL":1
					},
					"indices":2,
					"material":0
				},
				{
					"attributes":{
						"POSITION":3,
						"NORMAL":4
					},
					"indices":5,
					"material":1
				},
				{
					"attributes":{
						"POSITION":6,
						"NORMAL":7
					},
					"indices":8,
					"material":2
				},
				{
					"attributes":{
						"POSITION":9,
						"NORMAL":10
					},
					"indices":11,
					"material":3
				}
			]
		}
	],
	"accessors":[
		{
			"bufferView":0,
			"componentType":5126,
			"count":2339,
			"max":[
				0.047715120017528534,
				0.11280912905931473,
				0.04000014811754227
			],
			"min":[
				-0.04619999974966049,
				-0.03999089449644089,
				-0.039999909698963165
			],
			"type":"VEC3"
		},
		{
			"bufferView":1,
			"componentType":5126,
			"count":2339,
			"type":"VEC3"
		},
		{
			"bufferView":2,
			"componentType":5123,
			"count":8136,
			"type":"SCALAR"
		},
		{
			"bufferView":3,
			"componentType":5126,
			"count":759,
			"max":[
				0.047508355230093,
				0.11930912733078003,
				0.04000011458992958
			],
			"min":[
				-0.03190835565328598,
				-0.03999089449644089,
				-0.03999991714954376
			],
			"type":"VEC3"
		},
		{
			"bufferView":4,
			"componentType":5126,
			"count":759,
			"type":"VEC3"
		},
		{
			"bufferView":5,
			"componentType":5123,
			"count":2211,
			"type":"SCALAR"
		},
		{
			"bufferView":6,
			"componentType":5126,
			"count":162,
			"max":[
				0.047508355230093,
				0.09780912846326828,
				0.04000009968876839
			],
			"min":[
				-0.03190835565328598,
				0.07480908930301666,
				-0.03999986872076988
			],
			"type":"VEC3"
		},
		{
			"bufferView":7,
			"componentType":5126,
			"count":162,
			"type":"VEC3"
		},
		{
			"bufferView":8,
			"componentType":5123,
			"count":468,
			"type":"SCALAR"
		},
		{
			"bufferView":9,
			"componentType":5126,
			"count":56,
			"max":[
				0.012285979464650154,
				0.12480911612510681,
				0.004500124603509903
			],
			"min":[
				0.0032999999821186066,
				0.08480910211801529,
				-0.004499897360801697
			],
			"type":"VEC3"
		},
		{
			"bufferView":10,
			"componentType":5126,
			"count":56,
			"type":"VEC3"
		},
		{
			"bufferView":11,
			"componentType":5123,
			"count":162,
			"type":"SCALAR"
		}
	],
	"bufferViews":[
		{
			"buffer":0,
			"byteLength":28068,
			"byteOffset":0,
			"target":34962
		},
		{
			"buffer":0,
			"byteLength":28068,
			"byteOffset":28068,
			"target":34962
		},
		{
			"buffer":0,
			"byteLength":16272,
			"byteOffset":56136,
			"target":34963
		},
		{
			"buffer":0,
			"byteLength":9108,
			"byteOffset":72408,
			"target":34962
		},
		{
			"buffer":0,
			"byteLength":9108,
			"byteOffset":81516,
			"target":34962
		},
		{
			"buffer":0,
			"byteLength":4422,
			"byteOffset":90624,
			"target":34963
		},
		{
			"buffer":0,
			"byteLength":1944,
			"byteOffset":95048,
			"target":34962
		},
		{
			"buffer":0,
			"byteLength":1944,
			"byteOffset":96992,
			"target":34962
		},
		{
			"buffer":0,
			"byteLength":936,
			"byteOffset":98936,
			"target":34963
		},
		{
			"buffer":0,
			"byteLength":672,
			"byteOffset":99872,
			"target":34962
		},
		{
			"buffer":0,
			"byteLength":672,
			"byteOffset":100544,
			"target":34962
		},
		{
			"buffer":0,
			"byteLength":324,
			"byteOffset":101216,
			"target":34963
		}
	],
	"buffers":[
		{
			"byteLength":101540,
			"uri":"igus_REBEL_j4.bin"
		}
	]
}
