{
	"asset":{
		"generator":"Khronos glTF Blender I/O v4.1.63",
		"version":"2.0"
	},
	"scene":0,
	"scenes":[
		{
			"name":"Scene",
			"nodes":[
				4
			]
		}
	],
	"nodes":[
		{
			"mesh":0,
			"name":"ReBel.075"
		},
		{
			"mesh":1,
			"name":"ReBel.079"
		},
		{
			"mesh":2,
			"name":"ReBel.098"
		},
		{
			"children":[
				0,
				1,
				2
			],
			"name":"ReBel007"
		},
		{
			"children":[
				3
			],
			"name":"REBEL_\u95a2\u7bc0\u5206\u89e3 \rv2"
		}
	],
	"materials":[
		{
			"doubleSided":true,
			"name":"mat_2",
			"pbrMetallicRoughness":{
				"baseColorFactor":[
					0.20507873594760895,
					0.1946178376674652,
					0.18782077729701996,
					1
				],
				"metallicFactor":0.5,
				"roughnessFactor":0.5
			}
		},
		{
			"doubleSided":true,
			"name":"mat_0",
			"pbrMetallicRoughness":{
				"baseColorFactor":[
					0.7454042434692383,
					0.1119324341416359,
					0.013702083379030228,
					1
				],
				"metallicFactor":0.5,
				"roughnessFactor":0.5
			}
		},
		{
			"doubleSided":true,
			"name":"mat_1",
			"pbrMetallicRoughness":{
				"baseColorFactor":[
					0.04666508734226227,
					0.04666508734226227,
					0.04373503103852272,
					1
				],
				"metallicFactor":0.5,
				"roughnessFactor":0.5
			}
		},
		{
			"doubleSided":true,
			"name":"mat_3",
			"pbrMetallicRoughness":{
				"baseColorFactor":[
					0.3813260495662689,
					0.40724024176597595,
					0.4620770215988159,
					1
				],
				"metallicFactor":0.5,
				"roughnessFactor":0.5
			}
		}
	],
	"meshes":[
		{
			"name":"ReBel.075",
			"primitives":[
				{
					"attributes":{
						"POSITION":0,
						"NORMAL":1
					},
					"indices":2,
					"material":0
				}
			]
		},
		{
			"name":"ReBel.079",
			"primitives":[
				{
					"attributes":{
						"POSITION":3,
						"NORMAL":4
					},
					"indices":5,
					"material":1
				},
				{
					"attributes":{
						"POSITION":6,
						"NORMAL":7
					},
					"indices":8,
					"material":2
				},
				{
					"attributes":{
						"POSITION":9,
						"NORMAL":10
					},
					"indices":11,
					"material":0
				},
				{
					"attributes":{
						"POSITION":12,
						"NORMAL":13
					},
					"indices":14,
					"material":3
				}
			]
		},
		{
			"name":"ReBel.098",
			"primitives":[
				{
					"attributes":{
						"POSITION":15,
						"NORMAL":16
					},
					"indices":17,
					"material":0
				}
			]
		}
	],
	"accessors":[
		{
			"bufferView":0,
			"componentType":5126,
			"count":8,
			"max":[
				-0.05960000306367874,
				0.026135260239243507,
				-0.031060054898262024
			],
			"min":[
				-0.061500005424022675,
				0.024714868515729904,
				-0.033270228654146194
			],
			"type":"VEC3"
		},
		{
			"bufferView":1,
			"componentType":5126,
			"count":8,
			"type":"VEC3"
		},
		{
			"bufferView":2,
			"componentType":5123,
			"count":18,
			"type":"SCALAR"
		},
		{
			"bufferView":3,
			"componentType":5126,
			"count":482,
			"max":[
				0.05211721733212471,
				0.11029999703168869,
				0.05249999836087227
			],
			"min":[
				-0.05211721733212471,
				0.10000000149011612,
				-0.05249999836087227
			],
			"type":"VEC3"
		},
		{
			"bufferView":4,
			"componentType":5126,
			"count":482,
			"type":"VEC3"
		},
		{
			"bufferView":5,
			"componentType":5123,
			"count":1404,
			"type":"SCALAR"
		},
		{
			"bufferView":6,
			"componentType":5126,
			"count":2618,
			"max":[
				0.09119076281785965,
				0.10000000149011612,
				0.09119076281785965
			],
			"min":[
				-0.09119076281785965,
				0,
				-0.09119076281785965
			],
			"type":"VEC3"
		},
		{
			"bufferView":7,
			"componentType":5126,
			"count":2618,
			"type":"VEC3"
		},
		{
			"bufferView":8,
			"componentType":5123,
			"count":9852,
			"type":"SCALAR"
		},
		{
			"bufferView":9,
			"componentType":5126,
			"count":596,
			"max":[
				0.05270000174641609,
				0.0722000002861023,
				-0.05950000137090683
			],
			"min":[
				-0.05270000174641609,
				0.007499999832361937,
				-0.061500005424022675
			],
			"type":"VEC3"
		},
		{
			"bufferView":10,
			"componentType":5126,
			"count":596,
			"type":"VEC3"
		},
		{
			"bufferView":11,
			"componentType":5123,
			"count":1494,
			"type":"SCALAR"
		},
		{
			"bufferView":12,
			"componentType":5126,
			"count":534,
			"max":[
				0.03897605091333389,
				0.06996999680995941,
				-0.05959999933838844
			],
			"min":[
				-0.04344310238957405,
				0.010521036572754383,
				-0.06549999862909317
			],
			"type":"VEC3"
		},
		{
			"bufferView":13,
			"componentType":5126,
			"count":534,
			"type":"VEC3"
		},
		{
			"bufferView":14,
			"componentType":5123,
			"count":1344,
			"type":"SCALAR"
		},
		{
			"bufferView":15,
			"componentType":5126,
			"count":4,
			"max":[
				-0.05959999933838844,
				0.022561851888895035,
				-0.019214864820241928
			],
			"min":[
				-0.061500005424022675,
				0.0217371117323637,
				-0.023128915578126907
			],
			"type":"VEC3"
		},
		{
			"bufferView":16,
			"componentType":5126,
			"count":4,
			"type":"VEC3"
		},
		{
			"bufferView":17,
			"componentType":5123,
			"count":6,
			"type":"SCALAR"
		}
	],
	"bufferViews":[
		{
			"buffer":0,
			"byteLength":96,
			"byteOffset":0,
			"target":34962
		},
		{
			"buffer":0,
			"byteLength":96,
			"byteOffset":96,
			"target":34962
		},
		{
			"buffer":0,
			"byteLength":36,
			"byteOffset":192,
			"target":34963
		},
		{
			"buffer":0,
			"byteLength":5784,
			"byteOffset":228,
			"target":34962
		},
		{
			"buffer":0,
			"byteLength":5784,
			"byteOffset":6012,
			"target":34962
		},
		{
			"buffer":0,
			"byteLength":2808,
			"byteOffset":11796,
			"target":34963
		},
		{
			"buffer":0,
			"byteLength":31416,
			"byteOffset":14604,
			"target":34962
		},
		{
			"buffer":0,
			"byteLength":31416,
			"byteOffset":46020,
			"target":34962
		},
		{
			"buffer":0,
			"byteLength":19704,
			"byteOffset":77436,
			"target":34963
		},
		{
			"buffer":0,
			"byteLength":7152,
			"byteOffset":97140,
			"target":34962
		},
		{
			"buffer":0,
			"byteLength":7152,
			"byteOffset":104292,
			"target":34962
		},
		{
			"buffer":0,
			"byteLength":2988,
			"byteOffset":111444,
			"target":34963
		},
		{
			"buffer":0,
			"byteLength":6408,
			"byteOffset":114432,
			"target":34962
		},
		{
			"buffer":0,
			"byteLength":6408,
			"byteOffset":120840,
			"target":34962
		},
		{
			"buffer":0,
			"byteLength":2688,
			"byteOffset":127248,
			"target":34963
		},
		{
			"buffer":0,
			"byteLength":48,
			"byteOffset":129936,
			"target":34962
		},
		{
			"buffer":0,
			"byteLength":48,
			"byteOffset":129984,
			"target":34962
		},
		{
			"buffer":0,
			"byteLength":12,
			"byteOffset":130032,
			"target":34963
		}
	],
	"buffers":[
		{
			"byteLength":130044,
			"uri":"igus_REBEL_base.bin"
		}
	]
}
