{
	"asset":{
		"generator":"Khronos glTF Blender I/O v4.1.63",
		"version":"2.0"
	},
	"scene":0,
	"scenes":[
		{
			"name":"Scene",
			"nodes":[
				0
			]
		}
	],
	"nodes":[
		{
			"mesh":0,
			"name":"ReBel006.338",
			"translation":[
				0,
				-0.005797999911010265,
				0
			]
		}
	],
	"materials":[
		{
			"doubleSided":true,
			"name":"mat_4",
			"pbrMetallicRoughness":{
				"baseColorFactor":[
					0.3419143855571747,
					0.3049873411655426,
					0.3324514925479889,
					1
				],
				"metallicFactor":0.5,
				"roughnessFactor":0.5
			}
		},
		{
			"doubleSided":true,
			"name":"mat_0",
			"pbrMetallicRoughness":{
				"baseColorFactor":[
					0.7454042434692383,
					0.1119324341416359,
					0.013702083379030228,
					1
				],
				"metallicFactor":0.5,
				"roughnessFactor":0.5
			}
		},
		{
			"doubleSided":true,
			"name":"mat_1",
			"pbrMetallicRoughness":{
				"baseColorFactor":[
					0.04666508734226227,
					0.04666508734226227,
					0.04373503103852272,
					1
				],
				"metallicFactor":0.5,
				"roughnessFactor":0.5
			}
		},
		{
			"doubleSided":true,
			"name":"mat_3",
			"pbrMetallicRoughness":{
				"baseColorFactor":[
					0.3813260495662689,
					0.40724024176597595,
					0.4620770215988159,
					1
				],
				"metallicFactor":0.5,
				"roughnessFactor":0.5
			}
		}
	],
	"meshes":[
		{
			"name":"ReBel006.649",
			"primitives":[
				{
					"attributes":{
						"POSITION":0,
						"NORMAL":1
					},
					"indices":2,
					"material":0
				},
				{
					"attributes":{
						"POSITION":3,
						"NORMAL":4
					},
					"indices":5,
					"material":1
				},
				{
					"attributes":{
						"POSITION":6,
						"NORMAL":7
					},
					"indices":8,
					"material":2
				},
				{
					"attributes":{
						"POSITION":9,
						"NORMAL":10
					},
					"indices":11,
					"material":3
				}
			]
		}
	],
	"accessors":[
		{
			"bufferView":0,
			"componentType":5126,
			"count":4797,
			"max":[
				0.03833950310945511,
				0.013098303228616714,
				0.03834030032157898
			],
			"min":[
				-0.038340505212545395,
				0.008798278868198395,
				-0.03833970054984093
			],
			"type":"VEC3"
		},
		{
			"bufferView":1,
			"componentType":5126,
			"count":4797,
			"type":"VEC3"
		},
		{
			"bufferView":2,
			"componentType":5123,
			"count":11043,
			"type":"SCALAR"
		},
		{
			"bufferView":3,
			"componentType":5126,
			"count":2241,
			"max":[
				0.03999951481819153,
				0.012798301875591278,
				0.03970865532755852
			],
			"min":[
				-0.040000513195991516,
				0.0057982816360890865,
				-0.039708055555820465
			],
			"type":"VEC3"
		},
		{
			"bufferView":4,
			"componentType":5126,
			"count":2241,
			"type":"VEC3"
		},
		{
			"bufferView":5,
			"componentType":5123,
			"count":4482,
			"type":"SCALAR"
		},
		{
			"bufferView":6,
			"componentType":5126,
			"count":1975,
			"max":[
				0.02874952368438244,
				0.013298303820192814,
				0.028609706088900566
			],
			"min":[
				-0.02875051088631153,
				0.009798278100788593,
				-0.028700897470116615
			],
			"type":"VEC3"
		},
		{
			"bufferView":7,
			"componentType":5126,
			"count":1975,
			"type":"VEC3"
		},
		{
			"bufferView":8,
			"componentType":5123,
			"count":4686,
			"type":"SCALAR"
		},
		{
			"bufferView":9,
			"componentType":5126,
			"count":622,
			"max":[
				0.009499496780335903,
				0.01329829916357994,
				0.009431032463908195
			],
			"min":[
				-0.009500480256974697,
				0.011298282071948051,
				-0.009430436417460442
			],
			"type":"VEC3"
		},
		{
			"bufferView":10,
			"componentType":5126,
			"count":622,
			"type":"VEC3"
		},
		{
			"bufferView":11,
			"componentType":5123,
			"count":2742,
			"type":"SCALAR"
		}
	],
	"bufferViews":[
		{
			"buffer":0,
			"byteLength":57564,
			"byteOffset":0,
			"target":34962
		},
		{
			"buffer":0,
			"byteLength":57564,
			"byteOffset":57564,
			"target":34962
		},
		{
			"buffer":0,
			"byteLength":22086,
			"byteOffset":115128,
			"target":34963
		},
		{
			"buffer":0,
			"byteLength":26892,
			"byteOffset":137216,
			"target":34962
		},
		{
			"buffer":0,
			"byteLength":26892,
			"byteOffset":164108,
			"target":34962
		},
		{
			"buffer":0,
			"byteLength":8964,
			"byteOffset":191000,
			"target":34963
		},
		{
			"buffer":0,
			"byteLength":23700,
			"byteOffset":199964,
			"target":34962
		},
		{
			"buffer":0,
			"byteLength":23700,
			"byteOffset":223664,
			"target":34962
		},
		{
			"buffer":0,
			"byteLength":9372,
			"byteOffset":247364,
			"target":34963
		},
		{
			"buffer":0,
			"byteLength":7464,
			"byteOffset":256736,
			"target":34962
		},
		{
			"buffer":0,
			"byteLength":7464,
			"byteOffset":264200,
			"target":34962
		},
		{
			"buffer":0,
			"byteLength":5484,
			"byteOffset":271664,
			"target":34963
		}
	],
	"buffers":[
		{
			"byteLength":277148,
			"uri":"igus_REBEL_j5.bin"
		}
	]
}
