{
	"asset":{
		"generator":"Khronos glTF Blender I/O v4.1.63",
		"version":"2.0"
	},
	"scene":0,
	"scenes":[
		{
			"name":"Scene",
			"nodes":[
				0
			]
		}
	],
	"nodes":[
		{
			"mesh":0,
			"name":"ReBel005.061",
			"rotation":[
				0,
				0.7071068286895752,
				0,
				0.7071068286895752
			]
		}
	],
	"materials":[
		{
			"doubleSided":true,
			"name":"mat_1",
			"pbrMetallicRoughness":{
				"baseColorFactor":[
					0.04666508734226227,
					0.04666508734226227,
					0.04373503103852272,
					1
				],
				"metallicFactor":0.5,
				"roughnessFactor":0.5
			}
		},
		{
			"doubleSided":true,
			"name":"mat_0",
			"pbrMetallicRoughness":{
				"baseColorFactor":[
					0.7454042434692383,
					0.1119324341416359,
					0.013702083379030228,
					1
				],
				"metallicFactor":0.5,
				"roughnessFactor":0.5
			}
		},
		{
			"doubleSided":true,
			"name":"mat_2",
			"pbrMetallicRoughness":{
				"baseColorFactor":[
					0.20507873594760895,
					0.1946178376674652,
					0.18782077729701996,
					1
				],
				"metallicFactor":0.5,
				"roughnessFactor":0.5
			}
		}
	],
	"meshes":[
		{
			"name":"ReBel005.061",
			"primitives":[
				{
					"attributes":{
						"POSITION":0,
						"NORMAL":1
					},
					"indices":2,
					"material":0
				},
				{
					"attributes":{
						"POSITION":3,
						"NORMAL":4
					},
					"indices":5,
					"material":1
				},
				{
					"attributes":{
						"POSITION":6,
						"NORMAL":7
					},
					"indices":8,
					"material":2
				}
			]
		}
	],
	"accessors":[
		{
			"bufferView":0,
			"componentType":5126,
			"count":3239,
			"max":[
				0.11090768873691559,
				0.28900033235549927,
				0.062300000339746475
			],
			"min":[
				-0.10644741356372833,
				-0.05232919007539749,
				-0.056699998676776886
			],
			"type":"VEC3"
		},
		{
			"bufferView":1,
			"componentType":5126,
			"count":3239,
			"type":"VEC3"
		},
		{
			"bufferView":2,
			"componentType":5123,
			"count":11877,
			"type":"SCALAR"
		},
		{
			"bufferView":3,
			"componentType":5126,
			"count":995,
			"max":[
				0.05244259536266327,
				0.2889625132083893,
				-0.004699999932199717
			],
			"min":[
				-0.052461691200733185,
				-0.052404649555683136,
				-0.02669999934732914
			],
			"type":"VEC3"
		},
		{
			"bufferView":4,
			"componentType":5126,
			"count":995,
			"type":"VEC3"
		},
		{
			"bufferView":5,
			"componentType":5123,
			"count":2901,
			"type":"SCALAR"
		},
		{
			"bufferView":6,
			"componentType":5126,
			"count":734,
			"max":[
				0.052506379783153534,
				0.28916996717453003,
				0.03229999914765358
			],
			"min":[
				-0.05249933898448944,
				0.18413181602954865,
				-0.004699999932199717
			],
			"type":"VEC3"
		},
		{
			"bufferView":7,
			"componentType":5126,
			"count":734,
			"type":"VEC3"
		},
		{
			"bufferView":8,
			"componentType":5123,
			"count":2148,
			"type":"SCALAR"
		}
	],
	"bufferViews":[
		{
			"buffer":0,
			"byteLength":38868,
			"byteOffset":0,
			"target":34962
		},
		{
			"buffer":0,
			"byteLength":38868,
			"byteOffset":38868,
			"target":34962
		},
		{
			"buffer":0,
			"byteLength":23754,
			"byteOffset":77736,
			"target":34963
		},
		{
			"buffer":0,
			"byteLength":11940,
			"byteOffset":101492,
			"target":34962
		},
		{
			"buffer":0,
			"byteLength":11940,
			"byteOffset":113432,
			"target":34962
		},
		{
			"buffer":0,
			"byteLength":5802,
			"byteOffset":125372,
			"target":34963
		},
		{
			"buffer":0,
			"byteLength":8808,
			"byteOffset":131176,
			"target":34962
		},
		{
			"buffer":0,
			"byteLength":8808,
			"byteOffset":139984,
			"target":34962
		},
		{
			"buffer":0,
			"byteLength":4296,
			"byteOffset":148792,
			"target":34963
		}
	],
	"buffers":[
		{
			"byteLength":153088,
			"uri":"igus_REBEL_j1.bin"
		}
	]
}
